<svg width="116" height="115" viewBox="0 0 116 115" fill="none" xmlns="http://www.w3.org/2000/svg">
<path d="M19.6 53L11 25H10.8C10.8333 25.6667 10.8833 26.6667 10.95 28C11.0167 29.3333 11.0833 30.7667 11.15 32.3C11.2167 33.8 11.25 35.1667 11.25 36.4V53H4.5V17.3H14.8L23.25 44.6H23.4L32.35 17.3H42.65V53H35.6V36.1C35.6 34.9667 35.6167 33.6667 35.65 32.2C35.7167 30.7333 35.7667 29.35 35.8 28.05C35.8667 26.7167 35.9167 25.7167 35.95 25.05H35.75L26.55 53H19.6ZM66.318 25.2C66.6846 25.2 67.118 25.2167 67.618 25.25C68.118 25.2833 68.518 25.3333 68.818 25.4L68.268 32.4C68.0346 32.3333 67.6846 32.2833 67.218 32.25C66.7846 32.1833 66.4013 32.15 66.068 32.15C64.8013 32.15 63.5846 32.3833 62.418 32.85C61.2513 33.2833 60.3013 34 59.568 35C58.868 36 58.518 37.3667 58.518 39.1V53H51.068V25.7H56.718L57.818 30.3H58.168C58.968 28.9 60.068 27.7 61.468 26.7C62.868 25.7 64.4846 25.2 66.318 25.2ZM69.7445 49.5C69.7445 47.9667 70.1612 46.9 70.9945 46.3C71.8279 45.6667 72.8445 45.35 74.0445 45.35C75.2112 45.35 76.2112 45.6667 77.0445 46.3C77.8779 46.9 78.2945 47.9667 78.2945 49.5C78.2945 50.9667 77.8779 52.0333 77.0445 52.7C76.2112 53.3333 75.2112 53.65 74.0445 53.65C72.8445 53.65 71.8279 53.3333 70.9945 52.7C70.1612 52.0333 69.7445 50.9667 69.7445 49.5Z" fill="#685B5B"/>
<path d="M4.5 64.3H15.6C20.3667 64.3 23.9667 64.9667 26.4 66.3C28.8333 67.6333 30.05 69.9833 30.05 73.35C30.05 75.3833 29.5667 77.1 28.6 78.5C27.6667 79.9 26.3167 80.75 24.55 81.05V81.3C25.75 81.5333 26.8333 81.95 27.8 82.55C28.7667 83.15 29.5333 84.0167 30.1 85.15C30.6667 86.2833 30.95 87.7833 30.95 89.65C30.95 92.8833 29.7833 95.4167 27.45 97.25C25.1167 99.0833 21.9167 100 17.85 100H4.5V64.3ZM12.05 78.45H16.45C18.65 78.45 20.1667 78.1 21 77.4C21.8667 76.7 22.3 75.6833 22.3 74.35C22.3 72.9833 21.8 72 20.8 71.4C19.8 70.8 18.2167 70.5 16.05 70.5H12.05V78.45ZM12.05 84.45V93.75H17C19.2667 93.75 20.85 93.3167 21.75 92.45C22.65 91.55 23.1 90.3667 23.1 88.9C23.1 87.5667 22.6333 86.5 21.7 85.7C20.8 84.8667 19.15 84.45 16.75 84.45H12.05ZM48.6938 72.15C52.3604 72.15 55.1604 72.95 57.0938 74.55C59.0604 76.1167 60.0438 78.5333 60.0438 81.8V100H54.8438L53.3938 96.3H53.1938C52.0271 97.7667 50.7938 98.8333 49.4938 99.5C48.1938 100.167 46.4104 100.5 44.1438 100.5C41.7104 100.5 39.6938 99.8 38.0938 98.4C36.4938 96.9667 35.6938 94.7833 35.6938 91.85C35.6938 88.95 36.7104 86.8167 38.7438 85.45C40.7771 84.05 43.8271 83.2833 47.8938 83.15L52.6438 83V81.8C52.6438 80.3667 52.2604 79.3167 51.4938 78.65C50.7604 77.9833 49.7271 77.65 48.3938 77.65C47.0604 77.65 45.7604 77.85 44.4938 78.25C43.2271 78.6167 41.9604 79.0833 40.6938 79.65L38.2438 74.6C39.7104 73.8333 41.3271 73.2333 43.0938 72.8C44.8938 72.3667 46.7604 72.15 48.6938 72.15ZM52.6438 87.35L49.7438 87.45C47.3438 87.5167 45.6771 87.95 44.7438 88.75C43.8104 89.55 43.3438 90.6 43.3438 91.9C43.3438 93.0333 43.6771 93.85 44.3438 94.35C45.0104 94.8167 45.8771 95.05 46.9438 95.05C48.5438 95.05 49.8938 94.5833 50.9938 93.65C52.0938 92.6833 52.6438 91.3333 52.6438 89.6V87.35ZM82.9195 72.2C83.2862 72.2 83.7195 72.2167 84.2195 72.25C84.7195 72.2833 85.1195 72.3333 85.4195 72.4L84.8695 79.4C84.6362 79.3333 84.2862 79.2833 83.8195 79.25C83.3862 79.1833 83.0029 79.15 82.6695 79.15C81.4029 79.15 80.1862 79.3833 79.0195 79.85C77.8529 80.2833 76.9029 81 76.1695 82C75.4695 83 75.1195 84.3667 75.1195 86.1V100H67.6695V72.7H73.3195L74.4195 77.3H74.7695C75.5695 75.9 76.6695 74.7 78.0695 73.7C79.4695 72.7 81.0862 72.2 82.9195 72.2ZM100.598 72.15C104.265 72.15 107.065 72.95 108.998 74.55C110.965 76.1167 111.948 78.5333 111.948 81.8V100H106.748L105.298 96.3H105.098C103.931 97.7667 102.698 98.8333 101.398 99.5C100.098 100.167 98.3147 100.5 96.048 100.5C93.6147 100.5 91.598 99.8 89.998 98.4C88.398 96.9667 87.598 94.7833 87.598 91.85C87.598 88.95 88.6147 86.8167 90.648 85.45C92.6814 84.05 95.7314 83.2833 99.798 83.15L104.548 83V81.8C104.548 80.3667 104.165 79.3167 103.398 78.65C102.665 77.9833 101.631 77.65 100.298 77.65C98.9647 77.65 97.6647 77.85 96.398 78.25C95.1314 78.6167 93.8647 79.0833 92.598 79.65L90.148 74.6C91.6147 73.8333 93.2314 73.2333 94.998 72.8C96.798 72.3667 98.6647 72.15 100.598 72.15ZM104.548 87.35L101.648 87.45C99.248 87.5167 97.5814 87.95 96.648 88.75C95.7147 89.55 95.248 90.6 95.248 91.9C95.248 93.0333 95.5814 93.85 96.248 94.35C96.9147 94.8167 97.7814 95.05 98.848 95.05C100.448 95.05 101.798 94.5833 102.898 93.65C103.998 92.6833 104.548 91.3333 104.548 89.6V87.35Z" fill="#685B5B"/>
</svg>
